<svg width="128" height="35" viewBox="0 0 128 35"  xmlns="http://www.w3.org/2000/svg">
<path d="M122.152 34.368C119.752 34.368 117.768 34 116.2 33.264C114.664 32.528 113.512 31.424 112.744 29.952C111.976 28.448 111.592 26.576 111.592 24.336V16.512H109.96C108.936 16.512 108.136 16.24 107.56 15.696C107.016 15.152 106.744 14.368 106.744 13.344C106.744 12.32 107.016 11.552 107.56 11.04C108.136 10.496 108.936 10.224 109.96 10.224H111.592V7.24798C111.592 5.83998 111.96 4.76798 112.696 4.03198C113.432 3.29598 114.488 2.92798 115.864 2.92798C117.24 2.92798 118.296 3.29598 119.032 4.03198C119.768 4.76798 120.136 5.83998 120.136 7.24798V10.224H124.072C125.128 10.224 125.928 10.496 126.472 11.04C127.048 11.552 127.336 12.32 127.336 13.344C127.336 14.368 127.048 15.152 126.472 15.696C125.928 16.24 125.128 16.512 124.072 16.512H120.136V24.048C120.136 25.232 120.408 26.112 120.952 26.688C121.528 27.232 122.424 27.504 123.64 27.504C124.088 27.504 124.52 27.456 124.936 27.36C125.352 27.264 125.736 27.216 126.088 27.216C126.6 27.184 127.016 27.344 127.336 27.696C127.656 28.016 127.816 28.768 127.816 29.952C127.816 30.912 127.672 31.728 127.384 32.4C127.096 33.04 126.584 33.504 125.848 33.792C125.4 33.952 124.792 34.08 124.024 34.176C123.256 34.304 122.632 34.368 122.152 34.368Z" fill="#52B788"/>
<path d="M84.8824 34.272C83.5384 34.272 82.4984 33.904 81.7624 33.168C81.0264 32.432 80.6584 31.36 80.6584 29.952V14.064C80.6584 12.688 81.0104 11.632 81.7144 10.896C82.4504 10.16 83.4904 9.79198 84.8344 9.79198C86.1784 9.79198 87.2024 10.16 87.9064 10.896C88.6104 11.632 88.9624 12.688 88.9624 14.064V16.32L88.4344 14.352C89.2024 12.848 90.2904 11.696 91.6984 10.896C93.1384 10.096 94.7704 9.69598 96.5944 9.69598C98.4824 9.69598 100.034 10.064 101.25 10.8C102.466 11.504 103.378 12.624 103.986 14.16C104.594 15.664 104.898 17.568 104.898 19.872V29.952C104.898 31.36 104.53 32.432 103.794 33.168C103.058 33.904 102.002 34.272 100.626 34.272C99.2504 34.272 98.1944 33.904 97.4584 33.168C96.7224 32.432 96.3544 31.36 96.3544 29.952V20.208C96.3544 18.768 96.0984 17.744 95.5864 17.136C95.1064 16.528 94.3864 16.224 93.4264 16.224C92.1464 16.224 91.1224 16.64 90.3544 17.472C89.5864 18.272 89.2024 19.36 89.2024 20.736V29.952C89.2024 32.832 87.7624 34.272 84.8824 34.272Z" fill="#52B788"/>
<path d="M66.8974 34.368C64.0174 34.368 61.5214 33.872 59.4094 32.88C57.3294 31.856 55.7294 30.416 54.6094 28.56C53.4894 26.704 52.9294 24.512 52.9294 21.984C52.9294 19.552 53.4574 17.424 54.5134 15.6C55.6014 13.744 57.0734 12.304 58.9294 11.28C60.8174 10.224 62.9614 9.69598 65.3614 9.69598C67.1214 9.69598 68.7214 9.98398 70.1614 10.56C71.6014 11.104 72.8334 11.92 73.8574 13.008C74.8814 14.064 75.6494 15.344 76.1614 16.848C76.7054 18.352 76.9774 20.032 76.9774 21.888C76.9774 22.528 76.8014 23.008 76.4494 23.328C76.0974 23.616 75.5374 23.76 74.7694 23.76H60.0814V19.728H70.7374L69.9694 20.352C69.9694 19.168 69.8094 18.208 69.4894 17.472C69.1694 16.736 68.6894 16.176 68.0494 15.792C67.4414 15.408 66.6734 15.216 65.7454 15.216C64.7534 15.216 63.8894 15.456 63.1534 15.936C62.4494 16.384 61.9054 17.056 61.5214 17.952C61.1374 18.848 60.9454 19.968 60.9454 21.312V21.744C60.9454 24.016 61.4414 25.648 62.4334 26.64C63.4574 27.6 65.0254 28.08 67.1374 28.08C67.8414 28.08 68.6414 28 69.5374 27.84C70.4654 27.648 71.3454 27.392 72.1774 27.072C73.0094 26.752 73.7294 26.704 74.3374 26.928C74.9454 27.12 75.4094 27.472 75.7294 27.984C76.0814 28.464 76.2734 29.024 76.3054 29.664C76.3374 30.272 76.1934 30.88 75.8734 31.488C75.5534 32.064 75.0254 32.512 74.2894 32.832C73.1694 33.344 71.9694 33.728 70.6894 33.984C69.4414 34.24 68.1774 34.368 66.8974 34.368Z" fill="#52B788"/>
<path d="M39.0911 34.272C37.9711 34.272 37.0111 34 36.2111 33.456C35.4431 32.88 34.8031 32.032 34.2911 30.912L27.4271 15.216C27.0431 14.256 26.9151 13.36 27.0431 12.528C27.1711 11.696 27.5711 11.04 28.2431 10.56C28.9471 10.048 29.9071 9.79199 31.1231 9.79199C32.1471 9.79199 32.9631 10.032 33.5711 10.512C34.2111 10.96 34.7871 11.856 35.2991 13.2L40.1472 25.68H38.5152L43.6031 13.152C44.1151 11.84 44.6911 10.96 45.3311 10.512C45.9711 10.032 46.8511 9.79199 47.9711 9.79199C48.9311 9.79199 49.6991 10.048 50.2751 10.56C50.8831 11.04 51.2511 11.696 51.3791 12.528C51.5071 13.36 51.3471 14.256 50.8991 15.216L43.8911 30.96C43.4111 32.08 42.7711 32.912 41.9711 33.456C41.2031 34 40.2431 34.272 39.0911 34.272Z" fill="#52B788"/>
<path d="M4.608 33.84C3.104 33.84 1.952 33.456 1.152 32.688C0.384 31.888 0 30.752 0 29.28V4.56C0 3.088 0.384 1.968 1.152 1.2C1.952 0.400001 3.104 0 4.608 0H20.88C22.032 0 22.896 0.288 23.472 0.864C24.048 1.44 24.336 2.272 24.336 3.36C24.336 4.48 24.048 5.344 23.472 5.952C22.896 6.528 22.032 6.816 20.88 6.816H8.448V13.248H19.824C20.944 13.248 21.792 13.536 22.368 14.112C22.976 14.688 23.28 15.536 23.28 16.656C23.28 17.776 22.976 18.624 22.368 19.2C21.792 19.776 20.944 20.064 19.824 20.064H8.448V27.024H20.88C22.032 27.024 22.896 27.328 23.472 27.936C24.048 28.512 24.336 29.344 24.336 30.432C24.336 31.552 24.048 32.4 23.472 32.976C22.896 33.552 22.032 33.84 20.88 33.84H4.608Z" fill="#52B788"/>
</svg>
